<svg width="210" height="63" viewBox="0 0 210 63" fill="none" xmlns="http://www.w3.org/2000/svg">
<path fill-rule="evenodd" clip-rule="evenodd" d="M51.2191 3.77086C62.1394 1.86896 90.0116 -2.98536 114.081 2.61095C128.954 6.05744 152.785 18.3078 152.785 18.3078C152.785 18.3078 182.95 20.4235 196.492 26.8046C208.249 32.3442 208.296 33.1519 208.333 33.7821C208.339 33.8778 208.344 33.9695 208.39 34.073C208.572 34.4804 208.64 34.9983 208.708 35.5119C208.771 35.9875 208.834 36.4596 208.985 36.837C209.022 36.928 209.063 37.0285 209.109 37.1375C209.453 37.969 210 39.2894 210 40.5565C210 41.4045 209.436 42.3122 208.976 43.0535C208.659 43.565 208.39 43.9973 208.39 44.2759C208.39 44.631 208.504 44.7275 208.613 44.82C208.714 44.9053 208.81 44.9873 208.81 45.2655C208.81 45.5034 208.598 45.747 208.351 46.0317C207.995 46.4412 207.565 46.9356 207.585 47.6201C207.629 48.6532 208.393 49.3737 208.971 49.9183C209.329 50.2552 209.615 50.5247 209.615 50.7594C209.615 51.3737 208.565 52.295 207.795 52.5339C207.026 52.7727 202.161 53.6599 194.708 53.8988C194.708 53.8988 195.267 54.6495 193.098 54.6837H192.293C192.923 52.9434 193.308 50.7594 193.308 48.4049C193.308 47.3471 193.238 46.3234 193.098 45.3679C192.818 36.1545 185.084 28.7497 175.566 28.7497C166.957 28.7497 159.818 34.8237 158.314 42.7745C157.719 45.1632 157.404 47.9272 157.404 50.8618C157.404 52.1585 157.474 53.4552 157.579 54.6837H157.404L59.875 55.0931H59.5951C60.155 52.841 60.4699 50.4182 60.4699 47.9272C60.4699 46.5964 60.3999 45.5044 60.225 44.5831C59.5601 35.5403 51.7914 28.3743 42.3429 28.3743H41.783H41.3281C31.4248 28.3743 23.4111 37.7242 23.4111 49.2921C23.4111 51.3737 23.6561 53.3528 24.146 55.2638H22.9912C22.9912 55.2638 4.09432 50.5206 2.83453 49.3604C1.57474 48.2002 0 42.092 0 37.9631C0 35.8657 0.433393 34.8866 1.01124 33.5811C1.571 32.3164 2.26631 30.7455 2.83453 27.5553C3.67439 23.0169 4.05932 17.1818 4.05932 16.158C4.05932 16.158 9.48342 16.1922 12.7379 15.1685C13.3252 14.9879 14.6136 14.5576 16.3933 13.9631C24.3687 11.2991 42.2096 5.3397 51.0215 3.80528L51.2191 3.77086ZM42.3583 63C51.2267 63 58.416 55.9942 58.416 47.352C58.416 38.7099 51.2267 31.7041 42.3583 31.7041C33.4899 31.7041 26.3007 38.7099 26.3007 47.352C26.3007 55.9942 33.4899 63 42.3583 63ZM175.515 63C184.384 63 191.573 55.9942 191.573 47.352C191.573 38.7099 184.384 31.7041 175.515 31.7041C166.647 31.7041 159.458 38.7099 159.458 47.352C159.458 55.9942 166.647 63 175.515 63Z" fill="url(#paint0_linear)"/>
<defs>
<linearGradient id="paint0_linear" x1="106.671" y1="55.027" x2="108.31" y2="-17.8019" gradientUnits="userSpaceOnUse">
<stop stop-color="#C4C4C4"/>
<stop offset="1" stop-color="#C4C4C4" stop-opacity="0"/>
</linearGradient>
</defs>
</svg>
