<svg width="60" height="60" viewBox="0 0 60 60" fill="none" xmlns="http://www.w3.org/2000/svg">
<path d="M54.2623 7H5.73771C2.56557 7 0 9.53027 0 12.6588V48.3412C0 51.4697 2.56557 54 5.73771 54H54.2623C57.4344 54 60 51.4697 60 48.3412V12.6588C60 9.53027 57.4344 7 54.2623 7ZM5.73771 52.3832C3.47541 52.3832 1.63934 50.5724 1.63934 48.3412V41.1627L15.5328 31.7126C17.0984 30.6455 19.1967 30.7829 20.6066 32.0359L43.5082 52.3832H5.73771ZM58.3525 48.3412C58.3525 50.5724 56.5164 52.3832 54.2541 52.3832H45.959L36.5574 44.0244L58.3607 30.3383L58.3525 48.3412ZM58.3525 28.4224L35.5492 42.731C35.459 42.7876 35.3852 42.8603 35.3279 42.9412L21.7049 30.8153C19.7295 29.0611 16.7951 28.8751 14.6066 30.3626L1.63934 39.1983V12.6588C1.63934 10.4276 3.47541 8.61679 5.73771 8.61679H54.2623C56.5246 8.61679 58.3607 10.4276 58.3607 12.6588L58.3525 28.4224Z" fill="#ffffff"/>
<path d="M35.4179 16.5794C32.0245 16.5794 29.2704 19.2957 29.2704 22.6424C29.2704 25.9892 32.0245 28.7054 35.4179 28.7054C38.8114 28.7054 41.5655 25.9892 41.5655 22.6424C41.5655 19.2957 38.8114 16.5794 35.4179 16.5794ZM35.4179 27.0886C32.9261 27.0886 30.9097 25.0999 30.9097 22.6424C30.9097 20.1849 32.9261 18.1962 35.4179 18.1962C37.9098 18.1962 39.9261 20.1849 39.9261 22.6424C39.9179 25.0918 37.9016 27.0805 35.4179 27.0886Z" fill="#ffffff"/>
</svg>
